<?xml version="1.0" encoding="UTF-8" standalone="no"?>
<!-- Created with Inkscape (http://www.inkscape.org/) -->

<svg
   xmlns:dc="http://purl.org/dc/elements/1.1/"
   xmlns:cc="http://creativecommons.org/ns#"
   xmlns:rdf="http://www.w3.org/1999/02/22-rdf-syntax-ns#"
   xmlns:svg="http://www.w3.org/2000/svg"
   xmlns="http://www.w3.org/2000/svg"
   xmlns:sodipodi="http://sodipodi.sourceforge.net/DTD/sodipodi-0.dtd"
   xmlns:inkscape="http://www.inkscape.org/namespaces/inkscape"
   width="210mm"
   height="297mm"
   viewBox="0 0 744.09448819 1052.3622047"
   id="svg2"
   version="1.1"
   inkscape:version="0.91 r13725"
   sodipodi:docname="gravure-dbz-pan-give-u-flower-anime-6.svg">
  <title
     id="title3349">Pan Give You Flower</title>
  <defs
     id="defs4" />
  <sodipodi:namedview
     id="base"
     pagecolor="#ffffff"
     bordercolor="#666666"
     borderopacity="1.0"
     inkscape:pageopacity="0.0"
     inkscape:pageshadow="2"
     inkscape:zoom="0.35"
     inkscape:cx="976.28575"
     inkscape:cy="174.28571"
     inkscape:document-units="px"
     inkscape:current-layer="layer1"
     showgrid="false"
     inkscape:window-width="1536"
     inkscape:window-height="877"
     inkscape:window-x="-8"
     inkscape:window-y="-8"
     inkscape:window-maximized="1" />
  <metadata
     id="metadata7">
    <rdf:RDF>
      <cc:Work
         rdf:about="">
        <dc:format>image/svg+xml</dc:format>
        <dc:type
           rdf:resource="http://purl.org/dc/dcmitype/StillImage" />
        <dc:title>Pan Give You Flower</dc:title>
      </cc:Work>
    </rdf:RDF>
  </metadata>
  <g
     inkscape:label="Calque 1"
     inkscape:groupmode="layer"
     id="layer1">
    <path
       style="fill:currentColor"
       d="m 665.38201,1039.7677 c -26.93913,-0.4275 -55.47792,-0.9149 -63.41952,-1.0829 -25.56358,-0.5408 -108.68118,-0.8487 -226.21515,-0.8379 -107.3073,0.011 -115.38233,-0.023 -125.84811,-0.4985 l -11.18335,-0.5091 -39.47785,0.7346 c -29.6746,0.552 -39.50569,0.816 -39.59001,1.0625 -0.0855,0.25 -5.84673,0.3269 -24.22481,0.3231 -19.93044,0 -27.30451,-0.1183 -42.515609,-0.6588 -13.122876,-0.4664 -19.662083,-0.5914 -22.791386,-0.4354 -2.413619,0.1202 -16.161589,0.3057 -30.551054,0.4122 l -26.162637,0.1937 0.790654,-1.3403 c 0.434845,-0.7371 5.259515,-8.4811 10.721456,-17.2089 l 9.930824,-15.8687 23.344257,-47.19214 23.344257,-47.19213 1.647453,-40.56867 1.647442,-40.56867 0.187188,-34.77315 0.187176,-34.77315 8.90069,-23.73162 c 9.768609,-26.04569 9.405899,-25.2402 14.666889,-32.57377 14.11429,-19.67464 32.88533,-33.6765 52.53973,-39.19083 3.82765,-1.07391 9.67683,-2.18601 13.07394,-2.48575 1.85465,-0.16365 2.17979,-0.26536 2.05882,-0.6441 -0.079,-0.24739 -1.55028,-7.03185 -3.26951,-15.0766 l -3.12586,-14.6268 0.4424,-31.73739 c 0.33449,-23.99678 0.68211,-38.19204 1.42526,-58.2021 0.69488,-18.71027 0.92652,-27.805 0.79054,-31.03879 l -0.19232,-4.57408 -2.7702,-2.76844 c -15.28107,-15.27145 -25.77872,-37.79857 -30.09772,-64.58736 -0.97499,-6.04741 -1.56187,-11.79897 -1.75825,-17.23117 l -0.16525,-4.57104 2.28047,-4.69907 2.28047,-4.69906 -0.69755,-2.33836 c -4.99618,-16.74837 -5.30228,-46.4585 -0.81911,-79.50198 0.67238,-4.95583 0.69636,-5.69143 0.69224,-21.25026 l -0.004,-16.11672 1.15055,-13.66087 1.15055,-13.66089 3.97358,-13.38489 c 6.72712,-22.66013 12.71302,-42.53697 13.46389,-44.70834 0.39368,-1.1384 2.85485,-6.16809 5.4693,-11.17708 2.61445,-5.00898 10.19634,-19.60129 16.84864,-32.42734 l 12.0951,-23.32009 12.99949,-20.31812 12.9995,-20.31814 11.81121,-11.159998 c 6.49618,-6.138002 14.11675,-13.329361 16.93463,-15.980785 l 5.12339,-4.820776 4.7859,-2.441235 c 7.7743,-3.965571 30.55345,-15.823382 34.23068,-17.818957 3.79852,-2.061402 4.31103,-2.293825 33.99278,-15.415797 21.35086,-9.438992 23.32129,-10.273152 28.01113,-11.858335 17.52303,-5.9228468 37.5473,-8.9446674 53.53794,-8.0792996 13.95654,0.7552884 24.7728,3.3798216 35.50419,8.6149786 10.89755,5.316207 19.70442,12.552733 27.24783,22.389256 1.60669,2.095112 2.41365,2.933331 2.73374,2.839634 0.24977,-0.07311 2.81113,-0.447553 5.69191,-0.832086 24.55314,-3.277408 43.05437,-2.446539 51.66992,2.32044 1.09002,0.603109 6.44104,3.298158 11.89116,5.988995 5.45011,2.690838 10.67373,5.272319 11.60804,5.736626 1.96362,0.975827 2.48643,1.582203 16.07518,18.644729 4.53316,5.692033 14.93795,18.203385 23.1217,27.803 l 14.87958,17.45384 7.87506,16.49138 7.87504,16.49136 5.21925,30.90947 c 2.87062,17.0002 5.66048,34.32468 6.19974,38.49883 0.97967,7.58317 0.9812,7.61299 1.86,36.42902 0.72225,23.68314 0.92347,35.18037 1.12528,64.30272 0.13517,19.5047 0.33017,39.37507 0.43338,44.15638 l 0.18762,8.69328 -6.38278,17.38658 -6.38277,17.38657 -1.85636,27.85892 -1.85638,27.85892 -0.74274,0.75571 -0.74272,0.75567 0.47203,5.60657 c 4.18908,49.75637 9.24053,115.21944 10.49485,136.00589 2.23899,37.10449 3.46194,56.3376 3.69391,58.09323 0.14025,1.06161 0.25135,1.1651 2.8994,2.7005 7.89652,4.57857 15.50581,11.79022 21.25763,20.14678 10.1333,14.72229 17.1045,34.6523 20.67844,59.118 0.46562,3.18754 0.96837,6.60276 1.11717,7.58937 0.14885,0.98662 1.49396,5.45713 2.98919,9.93447 l 2.7186,8.14058 0.006,21.80296 c 0.003,11.99161 -0.13938,31.9244 -0.31585,44.29509 l -0.32087,22.49215 7.09634,43.05246 7.09633,43.05248 9.35752,42.58175 c 5.14663,23.41994 9.35752,42.76354 9.35752,42.98574 0,0.2222 -1.11133,1.9553 -2.46965,3.8514 l -2.46968,3.4474 -1.2817,-0.038 c -0.70495,-0.02 -23.32284,-0.3873 -50.26198,-0.815 z m -92.5881,-4.46 c 0.20138,-0.8599 2.14569,-13.9485 6.09815,-41.05162 l 3.36056,-23.04411 -3.73496,-5.7236 c -2.05422,-3.14799 -3.89951,-5.72493 -4.10064,-5.72653 -0.2011,-0.003 -7.59061,2.67819 -16.42112,5.9551 l -16.05545,5.95805 -21.23421,0.65293 c -11.67882,0.3591 -29.83408,0.90959 -40.34501,1.22327 -10.51094,0.3137 -25.03513,0.75339 -32.27599,0.97707 -7.24087,0.22371 -14.0741,0.40731 -15.18499,0.40805 l -2.01974,0 -0.64665,-1.55305 -0.64668,-1.55307 -2.62311,0.13377 -2.6231,0.13374 -4.9029,2.68962 c -15.8636,8.70242 -24.86305,13.76183 -24.86305,13.97779 0,0.13534 0.15926,0.24581 0.35389,0.2455 0.19465,0 2.64721,1.10501 5.45013,2.45626 4.74514,2.28751 5.2752,2.47797 7.69442,2.76418 9.43411,1.11617 17.60942,5.1976 22.25445,11.11025 3.1477,4.0068 5.04305,9.1053 5.55677,14.9477 0.27024,3.0734 0.009,8.6797 -0.53598,11.478 -0.1594,0.8194 -0.21858,1.5594 -0.13149,1.6442 0.13002,0.1268 119.95383,2.353 133.40216,2.4785 3.96103,0.037 4.03159,0.027 4.17454,-0.5834 z m 143.12553,-0.1866 c 0,-0.1406 -4.14851,-20.2283 -9.2189,-44.63931 l -9.21893,-44.38375 -7.02334,-40.84465 -7.02335,-40.84464 0.22625,-29.3916 c 0.23957,-31.12704 0.20857,-30.33805 1.81308,-46.13118 l 0.41093,-4.04462 -4.09367,-13.89038 -4.09365,-13.89041 0,-4.26202 c 0,-3.20838 -0.17998,-5.39252 -0.72807,-8.83478 -5.9036,-37.07798 -20.67599,-61.75684 -43.07366,-71.95917 -8.51677,-3.87944 -17.48961,-5.56349 -27.96875,-5.24917 -7.52311,0.22561 -13.69825,1.22848 -20.24445,3.28775 -2.75609,0.86698 -2.96817,0.98435 -2.90965,1.61024 0.0348,0.3713 1.1619,13.59083 2.50485,29.37674 l 2.44167,28.70164 7.06341,27.18378 7.06338,27.18376 2.96803,16.14468 c 5.69615,30.98453 6.69982,36.29251 6.9035,36.50927 0.17109,0.18202 3.26002,-6.19062 11.32856,-23.37151 0.63411,-1.35025 1.21216,-2.39722 1.28456,-2.32666 0.0724,0.0706 -1.53064,7.63318 -3.56233,16.80579 -2.0317,9.1726 -3.81475,17.38177 -3.96237,18.24259 -0.2408,1.4041 -0.0654,2.62518 1.70511,11.86703 1.08541,5.66604 3.95209,20.67176 6.37035,33.34601 2.41827,12.67426 4.6467,24.22392 4.95205,25.6659 0.69056,3.26114 0.49725,2.07897 4.67093,28.56366 l 3.47927,22.07818 -3.02444,24.18854 c -2.19423,17.54879 -3.14617,24.36679 -3.46791,24.83799 -0.24391,0.3572 -3.18621,4.2509 -6.5385,8.6527 l -6.09501,8.0034 2.87698,0.086 c 4.3674,0.1305 87.35363,1.907 90.99895,1.948 1.79169,0.02 3.18512,-0.076 3.18512,-0.2198 z m -666.001668,-2.0212 c 0.630334,-1.1005 3.171407,-5.824 5.646827,-10.4968 2.475408,-4.6728 4.53933,-8.3186 4.586485,-8.1018 0.04714,0.2168 -0.373738,4.3956 -0.935301,9.2862 -0.561574,4.8905 -0.94407,8.967 -0.849996,9.0586 0.211697,0.2063 12.882915,0.4449 12.882915,0.2425 0,-0.1868 3.488205,-21.4722 8.17283,-49.8716 l 3.664679,-22.21619 0.874149,-19.18042 c 0.480782,-10.54924 0.933849,-19.98767 1.00682,-20.97428 0.132649,-1.79355 0.131241,-1.79104 -8.304049,14.76479 l -8.43671,16.55864 -16.403941,26.07986 -16.403953,26.0799 -7.15161,14.4557 c -3.933396,7.9507 -7.073233,14.5328 -6.977416,14.6268 0.09585,0.094 6.184058,0.496 13.529447,0.8933 7.34539,0.3972 13.489689,0.7387 13.654008,0.7589 0.16432,0.02 0.814483,-0.8637 1.444816,-1.9641 z m 216.722378,-9.1254 6.6297,-11.1263 1.7759,-18.8507 c 0.97671,-10.36792 1.70463,-18.92022 1.61754,-19.00513 -0.12721,-0.124 -14.65179,-0.78402 -32.92198,-1.49602 l -2.61888,-0.10205 0,24.6504 0,24.6504 -15.21787,-0.1644 -15.21785,-0.1644 -8.77404,2.2164 c -4.82572,1.2191 -8.8547,2.1284 -8.95327,2.0206 -0.0985,-0.1077 -3.69191,-7.345 -7.98519,-16.0828 l -7.80595,-15.88699 1.68913,-4.39736 c 0.92903,-2.41856 2.18434,-5.89908 2.7896,-7.73452 l 1.10046,-3.33712 -2.6068,-8.11594 c -2.9259,-9.10937 -2.73895,-8.82902 -5.13328,-7.69919 -2.6269,1.23959 -4.95293,4.88732 -6.21921,9.75318 -1.19746,4.6014 -1.59954,7.99936 -1.76379,14.90546 l -0.1566,6.5849 0.63992,-0.19799 c 0.43633,-0.13498 0.5783,-0.10076 0.44621,0.10757 -0.10658,0.16805 -0.41267,0.30554 -0.68027,0.30554 -3.41415,0 -6.39884,10.86426 -7.80927,28.42566 -0.75178,9.3604 -0.82058,11.3106 -0.40066,11.3556 0.20778,0.023 19.67967,0.1215 43.27088,0.2205 23.59121,0.099 46.21925,0.2049 50.28451,0.2354 l 7.39137,0.056 6.62969,-11.1263 z m 30.82372,10.8387 c 16.89536,-0.1652 31.12571,-0.3588 31.62301,-0.43 0.62412,-0.089 0.96134,-0.319 1.08866,-0.7409 0.62481,-2.0709 13.40321,-33.2609 14.29341,-34.88792 3.82861,-6.99766 10.46968,-12.15578 18.18237,-14.12234 7.989,-2.03702 17.7926,-1.0321 28.75413,2.94741 l 2.35136,0.85365 4.30203,-3.61306 c 2.36614,-1.98721 7.58772,-6.41626 11.60356,-9.84238 6.5994,-5.63032 7.23974,-6.25158 6.6592,-6.46091 -1.37853,-0.49709 -2.24928,-1.71812 -2.99805,-4.20421 -0.30894,-1.0258 -0.46109,-3.71673 -0.59291,-10.48714 l -0.17732,-9.10725 -1.55718,-1.01959 c -0.85644,-0.56076 -2.11221,-1.2281 -2.7906,-1.48295 -1.54254,-0.57944 -0.47723,-0.91169 -21.21558,6.6169 -8.60971,3.12554 -15.8217,5.68284 -16.0266,5.68284 -0.44798,0 -10.28662,-4.6237 -10.47673,-4.92358 -0.17923,-0.28266 1.66934,-0.7689 4.92673,-1.29593 16.46238,-2.66357 28.93597,-6.18871 32.26157,-9.11736 0.84775,-0.74654 1.93893,-1.2021 5.42176,-2.26353 l 4.36041,-1.32886 0,-6.05912 0,-6.05908 -1.73571,-0.25091 -1.73569,-0.25092 -2.19833,-4.02674 c -1.20905,-2.21468 -2.22353,-4.05899 -2.25437,-4.09842 -0.0308,-0.0394 -8.19816,1.96885 -18.14955,4.46288 -21.07592,5.28202 -18.95158,4.78537 -18.99169,4.44009 -0.0264,-0.22613 12.32892,-4.72616 33.88199,-12.34052 l 3.25591,-1.15027 1.34484,-3.34582 c 0.73965,-1.84018 1.34483,-3.51512 1.34483,-3.72207 0,-0.79065 -5.50244,-15.7957 -5.83845,-15.92141 -0.19451,-0.0727 -11.59365,0.56208 -25.33142,1.41074 -13.73781,0.84866 -25.04262,1.47982 -25.12186,1.40257 -0.0792,-0.0772 -0.0771,-0.20582 0.004,-0.2857 0.082,-0.0799 11.02563,-1.94643 24.31927,-4.14788 13.29363,-2.20147 24.25134,-4.09207 24.35043,-4.2014 0.0991,-0.10931 0.85158,-4.79378 1.6721,-10.40991 1.38262,-9.46326 1.47807,-10.45372 1.30322,-13.52289 -0.45054,-7.90664 -2.49486,-16.3651 -5.75298,-23.80304 -0.54855,-1.25225 -1.08943,-2.27682 -1.20199,-2.27682 -0.39966,0 -3.69187,3.5472 -3.69187,3.97777 0,0.24085 -0.23324,0.43787 -0.51831,0.43787 -0.68185,0 -10.29515,-1.89324 -10.46779,-2.06152 -0.14389,-0.14026 -0.41093,0.0991 -11.76586,10.54782 -4.16504,3.83264 -7.75526,6.96843 -7.97829,6.96843 -0.22298,0 -2.24144,-0.93019 -4.48545,-2.06704 -3.41834,-1.73185 -4.10865,-1.99425 -4.25673,-1.61811 -0.14167,0.35987 -0.443,0.41819 -1.51915,0.29393 l -1.34243,-0.15495 -4.24327,10.53204 -4.24327,10.53203 -12.69177,9.69761 -12.69176,9.69759 -4.0125,1.5341 c -3.89783,1.49028 -4.0174,1.56024 -4.18529,2.44872 -1.51938,8.04195 -10.67665,62.37761 -14.10739,83.70786 -2.49018,15.48232 -4.64067,28.4712 -4.77889,28.8643 -0.13821,0.393 -5.15354,7.2234 -11.14519,15.1787 -5.99165,7.9553 -10.98677,14.6194 -11.10027,14.8092 -0.25891,0.4328 -2.01574,0.43 36.06678,0.057 z m -139.69867,-0.7208 c -0.52325,-1.3291 -1.9278,-6.9992 -2.4506,-9.8928 -0.76113,-4.2127 -1.0361,-11.7611 -0.56213,-15.4316 0.68764,-5.3252 2.92891,-11.27362 5.46781,-14.51192 0.90574,-1.15523 1.16526,-2.02721 3.71921,-12.49655 l 2.74553,-11.25467 4.41749,-9.44364 4.41749,-9.44364 5.86212,-37.49107 5.86211,-37.49109 -8.59479,-33.96213 c -4.72715,-18.67917 -8.52809,-34.02717 -8.44655,-34.10663 0.0815,-0.0795 0.2539,-0.0286 0.38304,0.11307 0.12914,0.14165 4.55414,11.5311 9.83337,25.30988 6.48125,16.91611 9.66439,24.8931 9.80127,24.56199 0.11149,-0.26969 1.93669,-10.79809 4.05602,-23.39645 l 3.85333,-22.90613 2.23144,-34.63516 c 1.22727,-19.04933 3.3229,-49.22746 4.65693,-67.06249 2.21826,-29.65683 2.4092,-32.83457 2.23476,-37.19372 l -0.19073,-4.76635 -1.72684,-0.79787 c -4.44156,-2.05217 -8.72567,-2.87679 -14.89206,-2.86647 -4.67866,0.008 -7.15418,0.27051 -12.64546,1.34175 -13.38047,2.61025 -31.07176,9.85419 -48.03639,19.66909 l -3.63258,2.10166 -8.40014,10.06119 c -4.62007,5.53367 -8.55476,10.33431 -8.74376,10.66808 -0.18899,0.33378 -3.21935,8.4048 -6.73411,17.93559 -6.341665,17.19635 -6.410961,17.40848 -9.070205,27.7662 l -2.679722,10.43745 0,53.99326 0,53.99326 -1.278273,41.98333 -1.278273,41.98334 -6.948035,38.04654 c -3.821413,20.9256 -6.883319,38.1096 -6.804248,38.1866 0.07909,0.077 18.591766,0.4185 41.139336,0.7587 22.54756,0.3404 41.35955,0.6361 41.80444,0.6572 0.64391,0.031 0.77223,-0.055 0.6292,-0.4178 z m 202.43326,-0.53 c -9.45698,-5.5585 -14.58932,-14.5183 -14.60707,-25.5002 l -0.003,-2.0771 -5.68488,10.6251 c -4.90958,9.1761 -8.9374,16.7651 -9.26234,17.4518 -0.0528,0.1117 4.0227,0.2377 9.05684,0.2799 5.03416,0.042 12.08332,0.1053 15.66482,0.1412 l 6.51183,0.064 -1.67586,-0.985 z m 8.94974,0.017 c 13.33773,-1.5319 23.79306,-3.1552 30.20652,-4.6903 4.64831,-1.1125 6.61401,-1.8271 8.01501,-2.9136 0.57479,-0.4458 1.10874,-0.8105 1.18648,-0.8105 0.0777,0 0.0656,1.987 -0.0272,4.4156 l -0.16848,4.4157 12.86269,0 12.86271,0 -0.21212,-2.7898 c -1.39084,-18.2898 -11.3532,-30.9752 -26.55327,-33.81119 -1.16505,-0.21737 -3.71316,-1.06078 -5.66246,-1.87425 -7.85781,-3.27917 -15.56504,-5.56837 -22.51339,-6.68696 -4.51143,-0.72626 -12.33827,-0.68026 -15.99645,0.094 -5.53788,1.17216 -9.65264,3.19113 -13.00238,6.37974 -1.67827,1.59755 -2.03427,2.07127 -1.70778,2.27257 0.34454,0.21245 0.33217,0.25503 -0.0751,0.25857 -0.61036,0.005 -1.18459,1.83828 -1.7736,5.66173 -1.15338,7.4868 0.31684,14.6477 4.22437,20.5752 1.87246,2.8404 5.95639,6.6538 9.22038,8.6095 1.45663,0.8726 2.74575,1.5868 2.86472,1.5868 0.11896,0 2.93111,-0.3118 6.24923,-0.6929 z m 246.21385,-1.308 c 8.58168,-12.4057 14.20472,-29.1007 15.63982,-46.43527 0.43425,-5.24531 0.19329,-18.31987 -0.4272,-23.18003 -0.76427,-5.98624 -1.35823,-8.98513 -7.36454,-37.18383 l -5.78921,-27.17941 -0.4107,-8.66304 -0.41073,-8.66302 -7.54199,-33.11727 c -4.14812,-18.21451 -11.691,-51.80785 -16.76197,-74.65188 l -9.21996,-41.53459 -2.37149,-29.1156 c -1.30435,-16.0136 -3.4579,-43.64583 -4.78566,-61.40496 -2.8383,-37.96227 -7.61541,-88.75035 -11.08423,-117.84234 l -2.13891,-17.93853 0.16096,-5.51954 c 0.2524,-8.65526 1.22295,-27.97428 2.71744,-54.09156 0.75566,-13.20552 1.35312,-24.01981 1.32777,-24.03175 -0.0255,-0.0119 -4.77402,1.4773 -10.5525,3.30946 l -10.50636,3.33113 -1.46768,9.38553 c -2.90758,18.59347 -5.36399,35.43185 -5.95885,40.84693 -0.50666,4.61232 -4.10299,34.32342 -6.62673,54.74641 -0.51635,4.17868 -0.76089,5.40115 -1.11951,5.59678 -0.41955,0.22885 -3.02708,3.34803 -3.02708,3.62103 0,0.0646 1.30591,0.19064 2.90201,0.28019 6.36509,0.3572 9.32157,2.29312 9.75511,6.38775 0.40567,3.83117 -2.69903,10.45736 -8.43776,18.00837 l -1.92705,2.5356 2.3414,1.10471 c 5.47197,2.58174 7.28625,6.44123 5.07798,10.80239 -0.98706,1.94931 -2.9878,4.03092 -4.73472,4.92605 -0.70702,0.36228 -0.96407,0.61744 -0.70781,0.70262 8.1515,2.70968 14.639,5.77319 18.88658,8.91862 2.45244,1.8161 3.9686,3.47943 5.22422,5.73136 0.85916,1.54089 0.92327,1.83877 0.92327,4.29034 0,2.50696 -0.0537,2.74076 -1.10937,4.82961 -1.98355,3.92492 -6.95135,8.18645 -14.4169,12.36731 -4.37385,2.44944 -4.16838,2.16068 -2.36665,3.32644 3.94837,2.55464 5.81885,5.10169 5.43019,7.39431 -0.15029,0.88653 -0.49762,1.46448 -1.37808,2.29321 -1.04812,0.98651 -1.80171,1.34534 -4.06896,1.93742 -0.61169,0.15974 -0.57964,0.23455 0.74329,1.73451 1.92991,2.18823 2.75354,3.56809 3.60956,6.04712 0.68909,1.99555 0.73048,2.39219 0.59809,5.73163 -0.16361,4.12782 -0.47655,5.32501 -3.53479,13.52289 -2.97482,7.97428 -3.30551,9.30965 -3.31449,13.3849 -0.007,2.97749 0.0834,3.67637 0.65739,5.10559 0.36574,0.91072 1.03181,3.33241 1.48014,5.38155 0.70995,3.24475 1.21977,8.41035 3.94962,40.01671 l 3.13448,36.29103 6.91341,27.7644 6.9134,27.76436 11.15825,37.64227 11.15826,37.64223 1.47103,25.25193 1.47101,25.25193 0.53338,38.22285 c 0.29335,21.02255 0.53799,40.67565 0.54371,43.67345 l 0.01,5.4505 13.72283,0 13.72284,0 1.38408,-2.0008 z m -413.69162,-13.8239 6.18505,-1.474 14.43927,0.1935 c 7.94159,0.1065 14.46648,0.174 14.49975,0.1501 0.0333,-0.024 -0.61672,-11.3388 -1.4444,-25.14439 l -1.50488,-25.10097 3.20147,-28.97762 c 1.76081,-15.93769 5.04829,-43.8804 7.30551,-62.0949 3.63145,-29.30375 4.66133,-38.67867 8.94368,-81.41332 l 4.83967,-48.29604 5.35304,-32.42733 c 4.85499,-29.41025 6.41973,-39.37777 6.96115,-44.34295 0.15721,-1.4417 0.0991,-1.82456 -0.37683,-2.48379 -0.30949,-0.42865 -1.46965,-2.39383 -2.57816,-4.36706 -1.1085,-1.97325 -3.45063,-5.7527 -5.20474,-8.39879 l -3.18928,-4.81114 -3.6806,-1.03048 c -6.28931,-1.76087 -10.29626,-3.23812 -15.28863,-5.63651 -3.85523,-1.85205 -5.63272,-2.91167 -8.93147,-5.32429 -2.26511,-1.65661 -4.66722,-3.61869 -5.33805,-4.36016 -4.06235,-4.49023 -4.4468,-10.40228 -1.0545,-16.21591 l 0.94578,-1.62084 -1.4938,-1.93557 c -3.03843,-3.93698 -6.08706,-10.15455 -7.3919,-15.07548 -0.8347,-3.14791 -1.13993,-7.48653 -0.69074,-9.81859 0.73013,-3.79065 3.07113,-6.88831 6.55779,-8.67742 1.00381,-0.51505 1.85932,-0.96164 1.90113,-0.99235 0.0418,-0.0307 -0.31714,-0.95643 -0.79767,-2.05716 -1.4653,-3.35649 -2.02616,-5.88095 -2.0568,-9.25756 -0.0217,-2.39043 0.10311,-3.44883 0.58709,-4.97905 0.67358,-2.12971 2.24321,-4.69323 3.79499,-6.19803 4.96591,-4.81555 7.43521,-6.95143 9.24368,-7.99551 2.56908,-1.48316 6.65153,-2.87143 10.24865,-3.48515 l 2.73815,-0.46715 -0.78373,-1.82243 c -2.08269,-4.84299 -7.1911,-24.24542 -12.28731,-46.6688 -0.5692,-2.50449 -4.81158,-18.35161 -9.4275,-35.21584 l -8.39258,-30.66222 -3.72821,1.2148 -3.72822,1.21482 0.11732,1.7117 c 0.0646,0.94142 0.57259,11.46056 1.129,23.37589 l 1.01168,21.66422 -0.17331,86.38091 c -0.19864,99.00117 -0.21071,99.63207 -2.14611,112.18479 l -1.1276,7.3134 -0.86051,31.04745 -0.8605,31.04746 -2.26983,29.94355 -2.26983,29.94354 -5.49678,33.39325 c -3.02322,18.3663 -7.03376,43.63892 -8.9123,56.1614 -1.87853,12.52247 -4.05388,26.8043 -4.8341,31.73739 -1.62167,10.25327 -1.52696,9.34299 -2.11324,20.31136 l -0.44399,8.30633 3.53486,11.33999 3.53486,11.33996 -2.10871,5.01849 c -1.1598,2.76016 -2.10872,5.19459 -2.10872,5.40985 0,0.62147 11.37796,29.89845 11.61949,29.89845 0.11958,0 3.00069,-0.6632 6.40247,-1.4739 z m -2.55114,-43.36874 c -0.0888,-0.22564 -0.41324,-2.18163 -0.72091,-4.34664 -2.40322,-16.91118 -2.95072,-35.53118 -1.27615,-43.40111 1.23242,-5.79202 3.07227,-8.41731 5.89902,-8.41731 0.93408,0 0.98889,0.0485 0.85684,0.75894 -0.15063,0.81026 -4.09161,53.8756 -4.09161,55.09346 0,0.78395 -0.40663,0.97448 -0.66719,0.31261 z m 12.66511,-64.04344 c -0.98841,-1.47044 -2.55917,-8.94444 -3.24531,-15.44172 -0.4981,-4.71678 -0.42139,-11.99877 0.15392,-14.61305 0.83398,-3.78964 2.0195,-5.35705 4.23603,-5.6006 1.03451,-0.11364 1.32271,-0.0497 1.47069,0.32615 0.10121,0.2571 -0.21825,8.12803 -0.70992,17.49089 -0.49169,9.36289 -0.89075,17.36494 -0.88683,17.78235 0.009,0.94942 -0.40279,0.97205 -1.01858,0.056 z m 73.12889,50.7928 c 0.81005,-6.83044 1.4809,-12.67777 1.49079,-12.99404 0.0161,-0.51204 -0.65815,-0.77569 -6.15382,-2.40658 l -6.17181,-1.83152 -15.54615,-1.9285 c -8.55038,-1.06067 -15.58242,-1.89313 -15.62675,-1.8499 -0.15862,0.15462 -2.02701,23.76256 -1.89111,23.89502 0.0763,0.0744 8.25393,2.2708 18.17247,4.88083 l 18.03367,4.74556 3.10997,-0.046 3.10994,-0.046 1.4728,-12.41898 z m 200.01737,7.43834 48.31189,-1.78045 16.38169,-3.29384 c 17.9027,-3.59966 23.68849,-4.82196 24.83387,-5.24644 0.62199,-0.23053 0.75237,-0.45465 0.76745,-1.31942 0.01,-0.57298 0.48997,-7.46779 1.06658,-15.32179 0.91101,-12.40897 0.99209,-14.26285 0.61882,-14.14884 -5.91899,1.80787 -9.07088,2.54962 -15.29347,3.59913 -7.40732,1.24929 -81.51603,13.50653 -110.13478,18.21575 -8.79805,1.44772 -16.64768,2.75718 -17.44359,2.90988 l -1.44719,0.27766 -1.68642,8.22189 c -1.60098,7.80544 -1.6644,8.2672 -1.25188,9.11627 l 0.43453,0.89436 3.26529,-0.17188 c 1.79593,-0.0945 25.00566,-0.97304 51.57721,-1.95228 z m -62.6897,-3.42952 c 5.60875,-3.60175 8.50149,-8.52933 7.87528,-13.4149 -0.22731,-1.77355 0.44213,-0.9473 -8.44249,-10.41964 -3.54824,-3.78293 -6.39351,-6.9344 -6.32284,-7.00328 0.0707,-0.0689 1.89081,0.80005 4.04478,1.93099 2.15397,1.13092 4.98043,2.57732 6.28107,3.21424 l 2.36476,1.15806 -0.19626,-1.46618 c -0.10792,-0.80641 -0.63963,-4.06907 -1.18155,-7.25037 l -0.9853,-5.78418 -7.66037,-9.33637 c -4.21318,-5.13502 -7.60536,-9.39001 -7.53812,-9.45556 0.0673,-0.0655 2.03061,1.40814 4.36307,3.27483 2.33245,1.86668 6.4025,5.09754 9.04459,7.17968 l 4.80373,3.7857 0.0859,-1.24447 c 0.0723,-1.04794 -0.77256,-7.90018 -2.57107,-20.8524 l -0.36321,-2.61591 -6.89244,-5.7031 c -7.7527,-6.41495 -8.86278,-7.41761 -8.21251,-7.41761 0.2413,0 2.97805,1.9742 6.08167,4.3871 3.10362,2.41293 5.69111,4.34267 5.74998,4.28833 0.24416,-0.22539 -1.82376,-4.74256 -2.54598,-5.56139 -2.17634,-2.46748 -4.88479,-7.22048 -6.2961,-11.04894 -1.49088,-4.04431 -2.45908,-8.91275 -1.92672,-9.68819 0.37448,-0.54549 1.5295,-0.13486 1.33147,0.47336 -0.0839,0.25755 1.69743,4.99781 3.95845,10.53387 4.00455,9.80516 4.14554,10.09566 5.4492,11.22822 1.57246,1.36608 3.84612,2.63908 4.4892,2.51352 0.56515,-0.11037 2.44975,-3.11654 3.2413,-5.17025 3.92791,-10.19113 -0.49821,-25.24611 -12.98874,-44.18017 -3.46642,-5.2546 -7.43834,-10.43393 -14.23669,-18.56427 -0.4426,-0.52933 -0.46446,-0.52825 -1.69873,0.0837 -1.73949,0.86228 -3.90758,2.3235 -7.1415,4.81309 l -2.76407,2.12795 2.62885,1.27559 c 2.13814,1.03749 3.08066,1.71527 5.04925,3.63099 1.54101,1.4996 2.7522,2.97567 3.33366,4.06257 3.15676,5.9012 2.7349,14.1564 -1.18485,23.18688 -0.61942,1.42702 -0.69203,1.8404 -0.43632,2.48379 1.17658,2.96036 0.18146,13.64747 -1.48048,15.89969 -0.48977,0.6637 -0.51854,0.84982 -0.19728,1.27601 4.90471,6.50683 6.81451,11.45822 6.81916,17.67933 0.003,3.73809 -0.68544,6.94277 -2.15828,10.05011 l -0.95672,2.01841 1.55332,3.55594 c 0.85432,1.95579 1.6647,3.69111 1.80089,3.85629 0.13615,0.16519 1.52436,1.07938 3.08488,2.03152 1.56051,0.95215 2.90617,1.83981 2.99034,1.97258 0.0842,0.13277 0.0142,3.25877 -0.15557,6.94671 -0.2678,5.81796 -0.25219,6.83703 0.118,7.70062 0.23462,0.54743 0.58216,2.15787 0.77228,3.57873 0.34339,2.56665 0.35557,2.59422 1.87059,4.23932 1.71723,1.86464 3.50491,5.18697 4.23224,7.86536 0.5424,1.99747 0.69441,8.72491 0.26656,11.79802 -0.14459,1.03857 -0.13622,1.72487 0.021,1.72487 0.14365,0 1.41655,-0.74194 2.82865,-1.64872 z m 58.68651,-25.41071 c 24.68124,-3.94528 55.00369,-8.79865 67.38325,-10.78527 12.37954,-1.98663 23.41949,-3.73999 24.53321,-3.89635 l 2.02493,-0.28435 0.17013,-1.41046 c 0.0935,-0.77574 0.61372,-6.44016 1.15593,-12.58755 0.54224,-6.1474 1.04017,-11.73593 1.1065,-12.41898 0.0902,-0.92822 -0.29584,-2.70573 -1.52826,-7.03742 -2.53466,-8.90877 -13.48481,-48.29234 -22.75111,-81.82729 l -8.35017,-30.21951 -4.02969,-27.04578 -4.02968,-27.04578 1.33852,-14.07485 c 0.7362,-7.74116 1.36164,-14.79799 1.38993,-15.68184 l 0.0514,-1.60696 -3.11435,-0.78253 c -6.74636,-1.69514 -23.63821,-7.71147 -49.28475,-17.5537 l -9.64758,-3.70238 -1.32182,1.18295 c -2.66798,2.38765 -6.3037,4.01527 -10.66812,4.77587 -2.86625,0.49949 -9.04489,0.4834 -12.61173,-0.0329 l -2.91664,-0.42215 -5.11703,3.56579 -5.11701,3.56583 -3.32757,0.60662 c -2.70791,0.49368 -7.50896,1.4708 -11.6295,2.36687 -0.4489,0.0976 -0.84453,0.55587 -1.24642,1.44361 -0.32387,0.71533 -3.28715,5.95771 -6.5851,11.64975 -3.29799,5.69203 -7.80018,13.47197 -10.00492,17.28874 l -4.00859,6.93956 -0.74452,22.80994 c -0.40949,12.54546 -0.67803,22.87478 -0.59672,22.954 0.0813,0.0793 3.95171,-2.02788 8.6009,-4.68253 l 8.45309,-4.82663 12.03018,-3.07971 c 19.29609,-4.9398 26.5269,-6.85776 30.15006,-7.99732 8.4129,-2.64603 59.35588,-17.44406 59.51569,-17.2883 0.0581,0.0566 -0.21992,0.82056 -0.61782,1.69759 -0.3979,0.87702 -0.66508,1.65151 -0.59377,1.72105 0.0714,0.0695 2.62364,-0.0919 5.67178,-0.35891 3.04813,-0.26692 5.60424,-0.42472 5.6802,-0.35066 0.16914,0.16487 -0.56038,4.02663 -0.80588,4.2659 -0.0967,0.0943 -9.83067,2.76926 -21.63095,5.94438 -11.8003,3.17512 -40.36491,10.85866 -63.4769,17.07452 -23.112,6.2159 -42.07062,11.34919 -42.13026,11.40731 -0.0597,0.0581 0.0258,6.85683 0.18958,15.10813 0.16389,8.25134 0.29841,18.76296 0.29885,23.35919 l 0,8.35674 1.00653,0.86146 c 2.62501,2.2466 10.60675,11.63391 14.81438,17.42314 7.45748,10.26068 13.23056,21.6998 15.41616,30.54652 1.12575,4.55675 1.42988,7.00339 1.42366,11.45306 -0.008,5.78524 -0.91331,10.06175 -3.13636,14.817 l -0.99204,2.12206 0.55973,0.77572 c 1.53334,2.12499 2.22437,4.414 2.60058,8.61435 0.29649,3.31032 -0.0249,8.49775 -0.72346,11.67221 l -0.46736,2.12426 0.71988,0.83391 c 1.31544,1.52386 1.76416,3.37672 1.74332,7.19854 -0.0258,4.74504 -1.36926,9.84558 -3.43974,13.05964 l -0.67935,1.05462 1.34241,1.91511 c 1.25645,1.79244 1.39805,1.9056 2.21052,1.76623 0.47746,-0.0819 21.06182,-3.37683 45.74304,-7.3221 z m -192.95254,4.63626 c 0.0814,-0.34152 2.37633,-13.22621 5.09983,-28.63265 2.7235,-15.40643 5.01173,-28.26389 5.08494,-28.57212 0.0875,-0.36835 5.2658,-3.98841 15.11027,-10.56329 l 14.97712,-10.00288 4.47422,-9.58306 c 2.46078,-5.27068 5.07273,-10.83292 5.8043,-12.36054 l 1.33011,-2.77748 2.86517,-1.77304 c 1.57586,-0.9752 2.94003,-1.96074 3.03155,-2.19011 0.0915,-0.2294 2.1842,-5.63303 4.65046,-12.00811 l 4.48406,-11.59104 7.70392,-12.00501 c 4.23716,-6.60276 7.86411,-12.17171 8.05992,-12.37547 0.29614,-0.30818 0.93534,-0.19862 3.80329,0.65197 1.89605,0.56236 3.49346,0.97743 3.5498,0.92243 0.0563,-0.055 -0.26588,-3.76364 -0.71601,-8.24137 -0.45018,-4.47774 -0.82169,-8.42076 -0.82559,-8.76228 -0.004,-0.34153 -0.123,-0.62096 -0.26458,-0.62096 -0.23737,0 -25.06478,-11.58229 -36.05083,-16.81816 l -4.74007,-2.25907 -2.07934,0.69958 c -3.74489,1.25993 -6.82747,1.62078 -12.50596,1.46397 -5.61291,-0.15502 -9.41749,-0.70041 -15.73311,-2.25532 -6.80118,-1.67447 -16.50287,-5.05154 -23.19628,-8.07449 l -2.40655,-1.08685 -3.51234,-5.15625 c -1.9318,-2.83594 -3.44896,-5.21807 -3.37148,-5.29358 0.0774,-0.0755 1.2121,0.34318 2.52141,0.93046 5.49225,2.46351 16.59354,6.62738 25.59663,9.60075 17.48275,5.77395 30.14038,8.2392 35.45236,6.90485 l 1.76074,-0.44228 18.87234,8.83437 c 10.37983,4.85887 18.93127,8.77696 19.00321,8.70681 0.0719,-0.0701 -1.00381,-11.60232 -2.39061,-25.62705 l -2.52143,-25.49953 -4.76496,-7.43221 c -12.43031,-19.38834 -17.24619,-26.79524 -17.75186,-27.3026 -0.55011,-0.55196 -0.55011,-0.55196 -0.85644,0 -0.75135,1.35389 -3.56064,3.6621 -5.20414,4.27591 -5.06153,1.89037 -12.06596,0.4871 -19.79281,-3.96527 -1.7433,-1.00453 -2.147,-1.12772 -3.42946,-1.04654 -0.79946,0.0506 -2.70731,-0.0539 -4.23972,-0.23223 -7.66096,-0.8916 -15.02023,-4.48115 -21.42511,-10.45027 l -1.34232,-1.25098 -6.44357,-0.2011 c -3.54396,-0.11058 -7.62206,-0.26825 -9.06245,-0.35035 -1.44038,-0.0821 -2.61888,-0.0403 -2.61888,0.0928 0,1.24927 -5.90205,46.79019 -9.03347,69.70332 l -3.96022,28.97763 -4.70047,48.57201 c -3.84175,39.69838 -5.1132,51.79879 -6.95961,66.23457 -1.24252,9.7144 -2.56625,19.77376 -2.94163,22.35416 -1.24375,8.54984 -3.34421,27.21732 -3.08887,27.45171 0.13671,0.12549 7.19214,2.29942 15.67876,4.83096 l 15.43019,4.60278 6.08714,0.77544 c 7.71102,0.98229 7.3187,0.97091 7.49843,0.217 z m 87.73555,-123.56886 c -0.0971,-6.29918 -0.25588,-14.74268 -0.35294,-18.76331 l -0.17644,-7.31022 -0.79946,-0.37296 c -1.11301,-0.51919 -2.00689,-0.22142 -3.54263,1.18019 -3.82233,3.48849 -8.44805,14.32436 -13.04384,30.55555 -1.04087,3.6761 -1.13198,3.86523 -2.70215,5.60852 -1.3082,1.45244 -2.01391,2.65071 -3.62037,6.14729 -1.0975,2.38875 -1.99841,4.4785 -2.00199,4.6439 -0.003,0.16538 0.7332,1.29773 1.63735,2.5163 l 1.64389,2.21557 11.56756,-7.48386 11.56752,-7.4839 -0.1765,-11.45307 z m 6.46505,10.04114 c 5.94567,-1.88192 9.7618,-3.34071 13.00282,-4.97055 3.94982,-1.98629 3.75183,1.19582 1.56502,-25.1542 l -1.89478,-22.83087 1.9911,-27.38398 1.99108,-27.384 11.21433,-17.32434 c 6.16789,-9.52839 11.26881,-17.46196 11.33537,-17.63021 0.0825,-0.20857 -0.32081,-0.26446 -1.26831,-0.1757 -2.68384,0.25135 -6.48683,-1.31421 -9.82383,-4.0442 -2.59793,-2.12537 -3.12723,-2.29481 -5.13545,-1.64409 -0.91273,0.29577 -3.12466,0.80203 -4.91541,1.12503 -2.85252,0.51452 -4.3433,0.58965 -12.03272,0.60643 -5.26165,0.0116 -10.25091,-0.12413 -12.45741,-0.3386 -6.51112,-0.63287 -14.86938,-1.72605 -20.13631,-2.63359 l -5.13079,-0.88413 -1.17788,0.98885 -1.17787,0.98887 0.84388,1.13553 c 0.46415,0.62453 6.33504,7.79329 13.04647,15.93054 6.71963,8.14724 12.44019,15.33541 12.73144,15.99767 1.94925,4.43264 3.45707,13.95256 4.30924,27.20683 0.4473,6.95775 0.44077,35.24764 -0.0112,46.36421 -0.53567,13.18768 -1.5629,31.51559 -2.38596,42.5695 -0.0504,0.67615 0.0438,1.03491 0.27149,1.03491 0.1917,0 2.55207,-0.69745 5.24524,-1.54991 z m 44.42422,-144.58315 c 6.02978,-1.19218 8.77169,-2.35513 9.75681,-4.13822 0.38371,-0.69452 0.41285,-0.98361 0.14776,-1.46643 -0.1816,-0.33073 -0.57363,-0.60136 -0.87123,-0.60136 -2.05901,0 -10.61891,-6.04727 -9.75369,-6.89065 0.71347,-0.69547 7.97189,3.22648 10.06116,5.43637 1.24054,1.31216 1.24997,1.31618 3.00113,1.27918 1.91923,-0.0406 3.73338,-0.7646 7.14223,-2.8504 1.95615,-1.19697 2.7104,-1.34653 3.57516,-0.70897 0.66481,0.49017 2.89216,0.53378 6.96061,0.13631 9.23336,-0.90204 15.52169,-2.91725 18.21504,-5.83728 1.50924,-1.63626 1.81682,-2.8352 1.53574,-5.98612 -0.16345,-1.83223 -0.4135,-2.72077 -1.20389,-4.27764 -2.39163,-4.71093 -9.1844,-10.07701 -19.23533,-15.19529 -5.26761,-2.68248 -9.38363,-4.34421 -10.24078,-4.13452 -0.63004,0.15413 -0.71959,0.0883 -0.71959,-0.52894 l 0,-0.70499 1.4864,0.42718 c 0.81752,0.23498 3.14691,1.02137 5.17644,1.74755 15.30921,5.47788 26.02128,12.02071 28.95398,17.68488 l 0.9343,1.80448 4.02035,-1.30132 c 10.40202,-3.36695 20.10277,-3.91678 28.5105,-1.61598 4.26743,1.16779 9.91326,4.24041 11.63989,6.33475 1.13761,1.37989 2.65196,1.79651 6.53,1.79651 4.11012,0 4.35672,-0.18284 5.232,-3.87914 2.70003,-11.40198 1.79525,-19.89811 -2.54932,-23.93914 l -1.52099,-1.41474 1.94412,-0.48125 c 2.48408,-0.61493 4.25592,-1.79454 5.02672,-3.34664 0.76014,-1.53059 0.74991,-2.36755 -0.0432,-3.53427 -1.0181,-1.49773 -2.86701,-2.21997 -6.24249,-2.43843 -2.27574,-0.14728 -2.70779,-0.2364 -2.03846,-0.42051 1.32301,-0.36384 3.82216,-1.81673 3.82216,-2.222 0,-0.20064 0.60518,-0.58951 1.34484,-0.86417 3.08719,-1.14638 10.64893,-7.72645 13.1711,-11.46126 2.31113,-3.42225 3.06752,-6.33715 2.35147,-9.06166 -0.60069,-2.28558 -1.21374,-3.20437 -3.53527,-5.29848 -3.21047,-2.89603 -8.72038,-5.35595 -16.26586,-7.26199 -2.04581,-0.51679 -3.76369,-0.94423 -3.81748,-0.94983 -0.0537,-0.005 0.29656,-0.69138 0.77859,-1.52392 0.48201,-0.83251 0.8764,-1.56316 0.8764,-1.62366 0,-0.0605 -0.25481,-0.17494 -0.56624,-0.2543 -0.86129,-0.21957 -0.67565,-0.74799 0.26279,-0.74799 0.74959,0 0.88761,-0.15204 1.44056,-1.58687 0.87023,-2.25814 1.46655,-5.52611 1.24636,-6.83044 -0.41222,-2.44193 -1.73905,-3.95581 -3.94325,-4.49907 -0.62143,-0.15316 -4.8565,-0.50024 -9.41123,-0.77127 -4.55474,-0.27103 -8.28134,-0.56677 -8.28134,-0.65719 0,-0.0904 3.7903,-1.7091 8.4229,-3.59708 9.29232,-3.78702 8.9289,-3.55801 12.03923,-7.58599 3.26934,-4.23385 4.54195,-7.95327 3.47274,-10.14961 -1.83105,-3.76127 -10.35041,-4.62386 -23.81554,-2.41138 -7.84416,1.2889 -21.63666,4.8291 -21.63666,5.55362 0,0.13526 -0.31852,0.24593 -0.70781,0.24593 -1.56157,0 -0.63132,-0.80765 2.33575,-2.02791 6.21674,-2.55671 13.25245,-4.8975 20.01535,-6.65914 1.86003,-0.4845 3.42343,-1.00249 3.47426,-1.1511 0.15517,-0.45379 -3.68641,-5.88795 -5.92438,-8.38036 -12.41757,-13.82925 -28.55424,-17.38284 -48.92107,-10.77324 -15.30978,4.96841 -32.96852,15.74047 -48.75149,29.73907 -5.90532,5.23769 -6.39787,5.64144 -6.56339,5.3804 -0.23836,-0.37597 2.58917,-3.59271 7.17264,-8.15994 8.88859,-8.85713 18.93993,-17.10198 27.97727,-22.94908 1.60023,-1.03536 2.86438,-2.01655 2.80923,-2.18045 -0.18983,-0.56388 -2.282,-1.49621 -4.11343,-1.83304 -3.33624,-0.61363 -9.53647,0.11796 -14.43474,1.7032 -0.98317,0.31817 -1.81616,0.53471 -1.85109,0.48116 -0.66817,-1.02489 -2.71636,-3.42949 -3.16548,-3.71633 -0.51375,-0.32814 -0.81486,-0.3194 -2.13475,0.062 -3.59359,1.03853 -7.7869,3.85789 -12.50763,8.4095 -2.77869,2.67913 -3.60981,3.6453 -3.60981,4.19626 0,1.63917 -0.53967,0.84002 -1.12819,-1.67057 -0.68998,-2.94352 -2.17708,-7.06588 -3.41537,-9.46757 -2.13447,-4.13983 -6.18994,-8.95182 -9.78994,-11.61613 -1.92135,-1.42195 -5.76243,-3.54314 -6.41599,-3.54314 -1.16156,0 -3.44169,0.96891 -4.33936,1.84391 -2.25867,2.20167 -3.22822,5.587 -3.43125,11.9806 -0.17163,5.40496 0.22589,9.61282 1.22742,12.99201 0.0869,0.2932 -0.0714,0.52506 -0.4353,0.63762 -0.97995,0.30319 -1.31222,2.02626 -0.91158,4.72733 0.68556,4.6219 4.02709,14.24098 5.8288,16.77901 0.84336,1.18803 0.91063,1.40395 0.54773,1.75773 -0.49638,0.48384 -0.41764,0.55907 -1.37944,-1.31826 -1.43027,-2.79182 -7.1025,-8.84497 -11.62164,-12.40209 -10.12998,-7.97357 -22.82334,-12.04559 -34.47449,-11.05944 -1.85219,0.15675 -3.54639,0.38253 -3.76486,0.5017 -0.29354,0.16015 2.16145,3.02275 9.4056,10.96731 5.39156,5.91285 11.07922,12.15203 12.63922,13.86485 1.56002,1.71283 2.74701,3.20137 2.63775,3.3079 -0.10925,0.10645 -1.92113,-1.57429 -4.02637,-3.73511 -10.25633,-10.52699 -20.51744,-17.5552 -29.82463,-20.42795 -4.34205,-1.34023 -5.79891,-1.56273 -10.19241,-1.55671 -4.50769,0.006 -6.27644,0.31765 -10.21768,1.79918 -2.29689,0.86346 -6.63826,3.48124 -7.82215,4.71671 l -0.62777,0.65511 2.60964,0.65625 c 3.51185,0.88312 11.73881,3.55411 17.46581,5.67047 15.94823,5.89356 26.11517,11.43187 27.49901,14.97981 0.29967,0.76826 0.13022,1.99719 -0.27538,1.99719 -0.12994,0 -1.94862,-0.79314 -4.04152,-1.7625 -17.89864,-8.29022 -37.22384,-15.45658 -52.02007,-19.29057 l -5.55371,-1.43908 -9.76773,0.0116 c -7.54611,0.009 -10.70147,0.12267 -13.87303,0.49974 -9.0934,1.08114 -15.84211,2.97246 -20.6185,5.77833 -3.47158,2.03936 -5.99666,8.90932 -5.99392,16.30759 0.001,2.93976 0.56092,7.4545 1.12641,9.08403 0.2444,0.70424 0.10747,0.9582 -1.56201,2.89777 -2.96719,3.44717 -4.64306,7.46899 -4.65683,11.17579 -0.007,1.89303 0.76012,5.27442 1.68669,7.43424 1.01321,2.36184 3.61167,6.17942 5.09543,7.48608 l 1.14434,1.00774 3.74941,-1.83184 c 2.06218,-1.00753 6.83941,-3.30151 10.61609,-5.09774 l 6.86666,-3.26586 10.26227,0.40194 c 22.02141,0.86253 46.78574,1.78629 52.61617,1.9627 l 6.11421,0.18501 -0.69731,2.71062 -0.69729,2.71064 -1.17007,-0.66512 c -3.47043,-1.9728 -9.99848,-2.74391 -23.11206,-2.73006 -15.02529,0.016 -35.63012,1.50364 -47.05901,3.39778 l -3.03342,0.50272 -6.96043,5.03151 c -7.47983,5.40698 -7.7161,5.64633 -9.26013,9.38063 -0.50629,1.22449 -0.62934,2.078 -0.63659,4.41564 -0.009,2.79174 0.0293,2.9735 1.03735,4.9676 0.58685,1.1609 1.78725,2.86442 2.73355,3.8793 1.36796,1.46707 2.1879,2.0504 4.33301,3.08278 6.11771,2.94423 15.34597,5.23201 26.11369,6.47384 l 1.95056,0.22495 1.78616,6.28973 c 1.96467,6.91839 1.99216,6.97071 5.26769,10.03164 3.11962,2.91522 6.79836,4.94333 10.98773,6.05761 2.85923,0.76049 8.17095,0.6573 11.51973,-0.22379 l 2.60201,-0.68462 0.34502,0.81188 c 1.04186,2.45183 4.25293,6.25314 7.06205,8.36015 3.65449,2.74108 7.45946,4.03258 11.84956,4.02201 2.56906,-0.006 6.3118,-0.69883 7.70587,-1.42608 0.7676,-0.40045 0.93203,-0.32557 1.36136,0.61987 0.21954,0.48348 1.55655,2.01477 2.97113,3.40285 2.04256,2.00437 3.04697,2.75459 4.88004,3.64509 3.9195,1.90404 7.47065,2.09776 11.50229,0.62737 2.05284,-0.74867 5.36442,-2.77799 5.7438,-3.51978 0.17321,-0.33866 0.396,-0.5367 0.4951,-0.44011 0.32253,0.31439 3.25218,-2.36438 5.72701,-5.23661 4.7536,-5.51682 10.45035,-14.63149 14.5189,-23.22996 1.07735,-2.2768 2.17603,-4.72751 2.44154,-5.44601 0.52013,-1.40752 1.41406,-2.66328 1.69902,-2.38671 0.0966,0.0939 -0.28236,1.14944 -0.84231,2.3458 -2.3425,5.00482 -4.08326,12.69228 -4.30659,19.01848 -0.17531,4.9671 0.17305,7.35496 1.43012,9.80258 1.73426,3.37678 4.54728,4.5711 8.83306,3.75028 3.41262,-0.65359 8.36195,-2.80277 11.93861,-5.18414 0.65093,-0.4334 1.24622,-0.788 1.32287,-0.788 0.0766,0 0.28377,0.42646 0.46023,0.9477 0.79944,2.36118 4.33058,4.01989 8.55768,4.01989 2.61535,0 4.10097,-0.52787 4.36434,-1.55075 0.21486,-0.83436 0.50042,-0.83408 0.8907,0 0.16914,0.36187 1.09056,1.47386 2.0476,2.47113 l 1.74008,1.8132 6.42075,2.46384 c 7.60595,2.91869 7.1542,2.75597 7.72664,2.78329 0.25108,0.0119 2.03475,-0.29028 3.96373,-0.67164 z m 14.02973,-21.02378 c -0.87692,-0.35424 -3.89037,-3.6262 -15.68198,-17.02738 -16.18336,-18.39239 -16.42693,-18.6587 -17.06421,-18.6587 -0.24742,0 -1.01785,0.57023 -1.71208,1.26718 -6.6358,6.66185 -16.89492,8.33965 -29.20255,4.77584 -6.23817,-1.80633 -15.45871,-5.83816 -19.74087,-8.63205 l -2.35393,-1.53581 -26.79393,13.75705 c -14.73663,7.56639 -26.90168,13.69577 -27.03342,13.62082 -0.1317,-0.075 -0.068,-0.28909 0.14156,-0.4759 0.2096,-0.18681 9.54344,-5.91588 20.7419,-12.7313 l 20.3608,-12.39163 -31.82296,-0.22576 c -17.50262,-0.12416 -31.87795,-0.2794 -31.94523,-0.34497 -0.0673,-0.0655 -0.0595,-0.1804 0.0173,-0.25517 0.0768,-0.0748 9.81259,-1.00343 21.63528,-2.0637 11.82273,-1.06026 25.69125,-2.30468 30.81898,-2.76538 5.12769,-0.46068 9.38515,-0.89811 9.461,-0.97205 0.16736,-0.16313 0.41673,-0.019 -2.61416,-1.51144 -3.24237,-1.59667 -6.03941,-4.07292 -7.23511,-6.4054 -0.47622,-0.92895 -0.86585,-1.91324 -0.86585,-2.18735 0,-0.29537 -0.6919,-0.97397 -1.69874,-1.6661 -0.93431,-0.64225 -1.69873,-1.32218 -1.69873,-1.51094 0,-0.72197 1.53491,-4.51265 3.11364,-7.68948 5.18687,-10.43747 12.70032,-17.47133 20.78475,-19.45801 2.72555,-0.66979 6.94617,-0.72934 9.87637,-0.13939 2.01683,0.40607 7.42847,2.07962 8.58024,2.65343 0.48649,0.24237 0.96675,0.11335 2.64531,-0.71061 5.38057,-2.64124 10.46942,-3.84615 16.29579,-3.85852 7.25425,-0.0155 12.65694,1.90195 18.17433,6.44973 l 2.03635,1.67847 2.50106,0 c 4.63359,0 8.68216,0.6845 12.96173,2.1915 1.24574,0.43867 3.1453,0.99432 4.22119,1.23481 7.31819,1.63558 9.39476,5.72504 6.21569,12.24082 -0.5384,1.1034 -1.91284,3.2148 -3.05439,4.69194 -2.4433,3.16167 -8.24343,9.1705 -8.85198,9.1705 -0.27933,0 -0.0448,-0.44636 0.68858,-1.31089 2.75167,-3.24348 5.06801,-7.20524 6.33326,-10.83211 0.75189,-2.1553 0.91805,-3.06371 0.93397,-5.10558 0.0164,-2.11763 -0.0884,-2.70756 -0.71092,-4.00168 -0.90869,-1.88875 -1.9234,-3.07292 -3.61378,-4.21726 l -1.31225,-0.88832 -5.94558,0.01 c -5.01719,0.008 -10.06559,0.35819 -11.52545,0.79964 -0.20113,0.0608 -1.01061,-0.6552 -1.79882,-1.59111 -2.84419,-3.37723 -7.09055,-5.99349 -11.30742,-6.96678 -4.13073,-0.95339 -9.90324,-0.50222 -15.1356,1.18297 -3.25909,1.04969 -7.37266,3.00954 -7.37266,3.51265 0,0.61041 -0.23783,0.56083 -3.03086,-0.63163 -5.00041,-2.1349 -8.97528,-3.07996 -12.91973,-3.07176 -3.24642,0.006 -5.86162,0.61233 -8.84783,2.04888 -4.39249,2.11307 -7.98401,5.82491 -10.54721,10.9005 -0.73284,1.4512 -1.89559,3.44342 -2.58387,4.42714 -1.7668,2.5253 -2.84308,5.17535 -3.04223,7.49066 l -0.16625,1.93305 1.10429,0.87645 c 2.52988,2.00796 7.74015,6.87113 8.76505,8.18116 1.45483,1.85953 2.29514,2.10452 5.95657,1.7367 l 2.77815,-0.2791 3.32477,2.32398 c 7.33928,5.13006 15.01021,9.18356 20.05851,10.5994 5.03367,1.41177 7.57934,1.75572 13.02365,1.75966 4.02918,0.003 5.55371,-0.11331 8.16173,-0.62235 5.46271,-1.06621 12.24809,-3.59162 13.96956,-5.19927 0.4156,-0.38815 0.88462,-0.62802 1.0422,-0.53306 0.15762,0.095 0.36585,0.0476 0.46278,-0.10527 0.10724,-0.16917 0.47487,-0.0647 0.93971,0.26695 0.71508,0.51032 1.45496,0.55875 11.66375,0.76369 l 10.90023,0.21879 1.74868,-1.11121 c 2.00972,-1.27712 2.25199,-1.86365 1.31837,-3.19179 -1.35183,-1.92309 -1.20537,-4.09143 0.39288,-5.81584 1.52459,-1.64493 4.14255,-3.00727 10.27153,-5.34511 9.34818,-3.56576 8.76172,-3.25181 10.26201,-5.49366 3.20045,-4.78232 4.61298,-9.0999 4.39837,-13.4442 -0.1719,-3.47972 -0.69183,-4.36602 -5.00246,-8.52729 -4.50104,-4.34507 -8.37492,-6.49716 -15.1047,-8.3912 -5.62839,-1.58405 -13.2733,-2.32201 -19.06071,-1.83991 -4.28902,0.35727 -4.08791,0.35532 -4.08791,0.0399 0,-0.31724 0.71496,-0.38974 12.44004,-1.26147 l 9.46726,-0.70385 11.57684,-3.74322 c 6.36727,-2.05879 11.63766,-3.68392 11.71208,-3.61142 0.0744,0.0725 -3.31395,2.27193 -7.52959,4.88759 -4.21567,2.61565 -7.71524,4.8352 -7.77683,4.93232 -0.0615,0.0971 2.84749,3.11712 6.46455,6.71108 l 6.57649,6.53454 2.82927,-2.75787 2.8293,-2.7579 16.65771,-5.09661 c 9.16174,-2.80316 16.7096,-5.04608 16.77299,-4.98426 0.13544,0.13203 -0.3077,0.39765 -6.28476,3.76684 -2.49148,1.40442 -5.4185,3.05543 -6.5045,3.66892 l -1.97449,1.11548 4.38104,1.43749 c 2.4096,0.79061 4.18996,1.50534 3.95639,1.58824 -0.38715,0.13739 -13.51816,2.07894 -26.61355,3.93505 -2.88079,0.40831 -5.34385,0.83572 -5.47349,0.94979 -0.12968,0.11405 0.20574,0.81186 0.74533,1.55066 3.28117,4.49243 4.04115,9.07623 2.05313,12.38296 -1.02893,1.71138 -3.68094,3.96173 -6.44865,5.47194 -2.0221,1.10336 -2.82407,1.76096 -4.65772,3.81925 -2.91457,3.27166 -6.9033,6.74787 -12.14297,10.58271 -3.71593,2.71964 -4.30788,3.25984 -4.59474,4.19311 -0.72075,2.34501 -3.33321,4.356 -6.51313,5.01368 -3.00591,0.6217 -7.64874,0.22253 -12.34172,-1.0611 -1.21276,-0.33169 -2.26356,-0.54602 -2.33514,-0.47623 -0.0716,0.0698 2.01011,1.97272 4.62603,4.22872 2.61591,2.25601 9.27909,7.99631 14.80706,12.75621 5.52798,4.75991 10.41077,9.04504 10.85069,9.5225 1.69531,1.84011 2.34426,4.07843 1.58393,5.46325 -0.69184,1.26009 -3.65679,1.71068 -5.73423,0.87143 z m -60.63529,-48.48878 c -8.98556,-1.44557 -18.49149,-5.69833 -26.61355,-11.90638 -2.02459,-1.54746 -3.25592,-2.6849 -3.25592,-3.00763 0,-0.51403 8.88911,-2.3136 15.99644,-3.23837 4.13309,-0.53779 6.09309,-0.62754 13.87303,-0.6353 9.55137,-0.01 10.87183,0.10366 16.20222,1.38877 5.45835,1.31595 9.64848,3.49566 12.06604,6.2768 1.19455,1.37418 2.16745,2.92203 2.16745,3.44828 0,0.38176 -3.60598,2.63366 -6.40973,4.00281 -3.09329,1.51056 -6.01323,2.55232 -9.16204,3.26881 -3.13128,0.71249 -11.52366,0.93959 -14.86394,0.40221 z m 42.32686,-55.91417 c 0,-0.64251 10.91621,-8.68203 17.9541,-13.22279 8.87916,-5.72877 14.65,-8.24836 18.28563,-7.98373 1.17513,0.0856 1.26674,0.14633 1.18009,0.7827 -0.28477,2.09072 -3.33143,5.12389 -7.99922,7.96372 -5.59736,3.4054 -15.72739,7.96305 -25.47064,11.4596 -3.85347,1.3829 -3.94996,1.40735 -3.94996,1.0005 z m 214.85219,102.86907 c -1.19716,-9.20156 -4.30508,-32.29741 -7.19209,-53.44644 l -3.5191,-25.77968 -3.55409,-56.73755 c -1.95474,-31.20564 -3.64499,-57.22184 -3.75609,-57.81375 l -0.202,-1.07622 -5.02543,4.4801 c -2.76399,2.46404 -5.02543,4.67721 -5.02543,4.91816 0,0.24096 -0.18155,0.63417 -0.40342,0.87381 -0.2382,0.25724 -1.74707,7.16103 -3.68412,16.85634 -4.12914,20.6675 -3.84387,19.31841 -4.08511,19.31841 -0.1128,0 -1.78026,-1.29914 -3.70547,-2.887 -1.92519,-1.58784 -3.60585,-2.82345 -3.73478,-2.74576 -0.12894,0.0777 -4.14585,4.98739 -8.92649,10.91049 l -8.69208,10.76928 0.0502,1.29075 c 0.0275,0.70989 0.31886,12.3436 0.6473,25.8527 0.56654,23.30189 0.7098,26.47337 2.79245,61.81892 l 2.19528,37.25695 1.47223,2.85272 c 0.93924,1.81995 1.60226,2.80406 1.83141,2.71834 6.5041,-2.43284 15.60191,-3.88051 24.38424,-3.88005 9.86522,0 18.23408,1.67058 25.93378,5.17521 1.15245,0.52458 2.16917,0.96397 2.25934,0.97644 0.0901,0.0125 0.063,-0.7535 -0.0604,-1.70217 z M 207.5685,617.6157 c -0.002,-25.76578 -0.034,-57.28344 -0.0708,-70.03925 l -0.0669,-23.19242 -2.90201,-0.9179 c -9.87875,-3.12459 -19.92296,-8.45707 -27.75128,-14.73318 l -2.96049,-2.3735 -0.19455,3.77902 c -0.13872,2.69483 0.21741,13.99309 1.24131,39.38011 l 1.43584,35.60109 -0.66785,25.11898 -0.66785,25.11896 1.04852,12.55195 c 0.5767,6.90355 1.0144,12.61401 0.97267,12.68991 -0.0418,0.0759 2.61897,0.14216 5.91264,0.14726 6.64678,0.0107 9.96004,0.32337 16.03936,1.51556 3.19316,0.62619 8.63525,1.99537 8.63525,2.17255 0,0.0151 -0.002,-21.05341 -0.003,-46.81914 z m 77.65346,-72.52718 c 6.52286,-5.49496 14.04295,-9.42091 20.55825,-10.73271 2.84,-0.57182 7.9643,-0.5354 10.36978,0.0737 l 1.84029,0.46599 1.28826,-0.88506 c 1.61443,-1.10915 4.84685,-2.38099 8.10013,-3.1871 2.14318,-0.53106 3.21463,-0.61775 7.45742,-0.60323 5.81501,0.0199 7.63716,0.39713 12.4574,2.57934 2.38243,1.07855 4.87056,1.82623 12.52919,3.76494 5.256,1.33051 9.62224,2.35491 9.70276,2.27645 0.0804,-0.0784 0,-1.68216 -0.17577,-3.56375 -0.42162,-4.47806 -0.17324,-13.21832 0.45359,-15.9622 1.24452,-5.44771 3.60042,-8.50946 6.98049,-9.07192 1.16043,-0.1931 1.22436,-0.25453 1.41853,-1.36314 0.75423,-4.30673 4.1619,-6.68456 6.42218,-4.48131 0.78445,0.76464 2.02312,3.37251 2.02312,4.25942 0,0.20749 0.72249,0.77473 1.60556,1.26051 5.49561,3.02327 9.77255,10.49111 11.69467,20.4197 0.3379,1.74556 0.67771,3.47861 0.75508,3.85121 0.11983,0.57682 0.31125,0.35129 1.28844,-1.51788 2.4749,-4.73395 5.99757,-8.75039 9.08471,-10.35809 2.3688,-1.23362 4.77322,-1.29463 6.8313,-0.1734 0.75387,0.41074 1.74095,0.74677 2.19349,0.74677 0.45255,0 1.27344,0.18353 1.8242,0.40784 0.87232,0.35529 1.08138,0.35676 1.62231,0.0113 1.69574,-1.08305 8.56181,-1.79029 12.50517,-1.28812 4.44682,0.5663 6.89866,1.83052 7.52931,3.88231 l 0.32345,1.05233 2.58545,-1.50325 c 3.23634,-1.8817 9.68512,-4.95719 13.13641,-6.26494 6.25109,-2.36859 11.43558,-3.45388 17.50882,-3.66511 6.69512,-0.2329 11.27792,0.58551 16.41249,2.9309 6.96494,3.18153 13.65406,9.71703 18.2909,17.87083 0.98385,1.73008 1.91623,3.31066 2.07194,3.5124 0.2348,0.30421 0.93265,0.29063 4.08813,-0.0795 l 3.80501,-0.44631 0.39849,-1.51788 c 0.21916,-0.83483 2.30433,-9.27973 4.63367,-18.76645 l 4.23518,-17.24858 5.09392,-34.73699 c 2.80167,-19.10537 5.0194,-34.80966 4.92829,-34.89848 -0.18624,-0.18153 -27.69867,-5.29537 -27.82525,-5.17198 -0.0446,0.0435 0.0483,0.41063 0.20636,0.81593 1.39203,3.56894 3.84778,14.22194 4.71459,20.4519 0.62338,4.48017 0.71942,15.85328 0.16552,19.5944 -1.80302,12.17725 -6.21823,21.93753 -13.09625,28.95049 -4.23297,4.31599 -1.66052,3.70461 -23.90679,5.68189 -10.58878,0.94113 -19.44346,1.78052 -19.67703,1.86529 -0.23358,0.0848 -0.6459,0.12757 -0.91628,0.0951 -0.27038,-0.0325 -2.54203,0.13923 -5.04809,0.38168 -4.0313,0.38995 -4.72518,0.53271 -6.02021,1.23863 -3.53287,1.92571 -8.02854,2.53508 -10.52368,1.42637 -8.64386,-3.8409 -10.11042,-23.51902 -3.79254,-50.88719 5.14621,-22.29262 14.38369,-42.42216 23.596,-51.41839 3.04953,-2.97804 5.74823,-4.63604 8.61241,-5.29126 2.33345,-0.5338 2.22912,-0.25542 1.73337,-4.62458 -0.2573,-2.26752 -0.357,-2.54666 -1.14498,-3.20589 l -0.86312,-0.72207 -2.03787,1.32175 c -3.72397,2.41537 -11.11632,5.77995 -12.69926,5.77995 -0.28704,0 -0.52192,-0.16346 -0.52192,-0.36324 0,-0.47217 3.41849,-3.76884 5.23778,-5.05116 3.21806,-2.2682 7.02922,-3.36844 9.16009,-2.64436 0.80293,0.27283 0.92918,0.21885 1.87515,-0.80183 0.93798,-1.012 1.00243,-1.19219 0.85645,-2.39536 -0.0868,-0.71557 -0.53856,-4.52996 -1.00387,-8.47643 -0.98853,-8.38389 -3.96602,-31.98912 -4.04132,-32.03901 -0.0284,-0.0188 -4.95666,2.6235 -10.95178,5.87177 -15.68965,8.50088 -19.8218,10.66341 -20.01529,10.47478 -0.14261,-0.13899 -0.87479,-9.95759 -0.92159,-12.35821 -0.0133,-0.68365 0.88725,-1.19628 14.50566,-8.25692 l 14.51983,-7.52799 -1.62475,-18.65088 -1.62479,-18.65088 -0.0399,-29.94354 -0.0399,-29.94355 -0.84009,2.62178 c -0.46203,1.44199 -3.14136,9.70062 -5.95411,18.3525 l -5.11404,15.73071 -8.42996,37.94688 -8.42995,37.94689 -3.74982,38.63683 c -2.06238,21.25026 -3.77861,38.67252 -3.81384,38.71612 -0.0352,0.0436 -5.90928,-0.23888 -13.05349,-0.62779 -7.14423,-0.38891 -18.82169,-0.93499 -25.94991,-1.21353 -7.12821,-0.27858 -13.026,-0.57042 -13.10621,-0.6486 -0.0802,-0.0782 0.0474,-14.22213 0.28344,-31.43106 0.38114,-27.78381 1.62928,-71.4875 3.10436,-108.70061 l 0.14767,-3.7257 -6.78141,31.7374 -6.78145,31.7374 -2.69638,38.48035 c -1.483,21.16418 -2.72612,38.50099 -2.76251,38.52624 -0.0364,0.0251 -4.14314,1.69922 -9.12609,3.71995 l -9.05994,3.67404 -3.82215,-0.77677 c -2.1022,-0.42721 -4.10878,-0.83439 -4.45905,-0.90482 -0.58544,-0.11773 -0.50147,0.14764 1.03946,3.28479 3.85084,7.83997 6.98778,20.19505 9.34497,36.80614 1.47069,10.36378 2.86227,24.48192 3.30506,33.53125 l 0.18231,3.72569 -3.29388,1.58687 c -1.81165,0.87278 -3.43612,1.58687 -3.60993,1.58687 -0.17383,0 -1.09611,-0.37299 -2.04952,-0.82887 -3.31404,-1.58464 -9.06143,-2.6854 -18.28971,-3.5029 -3.64643,-0.32303 -8.92766,-0.45514 -19.92951,-0.49852 l -14.96836,-0.059 -3.74749,-3.98605 -3.74748,-3.98603 -3.65084,-0.63911 c -2.00797,-0.3515 -3.83424,-0.73578 -4.05839,-0.85395 -0.28315,-0.14925 0.48047,-0.64921 2.50189,-1.63801 1.73426,-0.8483 2.85786,-1.55666 2.78174,-1.75362 -0.0703,-0.18173 -0.33967,-1.04452 -0.59872,-1.91729 l -0.47102,-1.58687 -2.8941,-0.0322 c -1.59175,-0.0176 -3.72066,-0.11089 -4.73088,-0.20699 l -1.83679,-0.17472 3.63076,-2.03746 3.63078,-2.03743 -0.17645,-0.99831 c -0.0971,-0.54906 -0.30343,-1.62786 -0.45861,-2.39734 l -0.28216,-1.39906 -6.34319,-1.91266 c -3.48875,-1.05198 -6.25557,-1.98845 -6.14847,-2.08105 0.10714,-0.0926 2.10437,-0.32857 4.43837,-0.52443 6.19702,-0.52003 5.69398,0.0833 4.13889,-4.96476 l -1.31774,-4.27764 -3.43575,-1.92999 c -1.88967,-1.0615 -3.39018,-2.00186 -3.33451,-2.08968 0.0556,-0.0879 1.62467,-0.38744 3.48662,-0.66582 l 3.38535,-0.50612 0.17374,-2.50976 c 0.0955,-1.38038 0.24597,-3.56618 0.33428,-4.85728 l 0.16055,-2.34752 -2.07723,-0.51436 c -2.58662,-0.6405 -4.06849,-1.22085 -3.79617,-1.4867 0.11458,-0.11185 1.31086,-0.57593 2.65842,-1.0313 l 2.45012,-0.82794 0.47784,-3.31172 c 0.26282,-1.82145 0.55212,-3.7736 0.64291,-4.33814 l 0.16507,-1.02639 -2.26477,-1.27336 c -1.24562,-0.70032 -2.32814,-1.37329 -2.40559,-1.49547 -0.0774,-0.12215 1.10006,-0.52145 2.61672,-0.88731 l 2.75755,-0.6652 0.24934,-1.87993 c 0.17853,-1.34597 0.15752,-1.93526 -0.0739,-2.07469 -0.17781,-0.1071 -3.40298,-0.34033 -7.16703,-0.51823 -3.76406,-0.17787 -6.91597,-0.43733 -7.00425,-0.57659 -0.0883,-0.13924 -2.06889,-14.66317 -4.40135,-32.27542 -2.33246,-17.61224 -4.295,-31.96943 -4.3612,-31.90491 -0.0662,0.0646 -0.35835,14.36205 -0.6492,31.77226 -0.29085,17.41019 -0.58781,31.71241 -0.65989,31.78268 -0.072,0.0702 -3.85593,0.48826 -8.40853,0.92888 -4.5526,0.44066 -8.31436,0.83713 -8.35947,0.88111 -0.0451,0.0439 0.60973,3.35926 1.45522,7.36728 0.84548,4.00804 1.59908,7.68398 1.67467,8.16876 0.0756,0.48477 0.27387,1.29201 0.44062,1.79385 0.16676,0.50183 1.07613,4.51394 2.02082,8.91578 5.72731,26.68673 7.68578,34.79481 13.86548,57.40329 3.40209,12.44658 6.78204,24.86556 7.51098,27.59773 l 1.32537,4.9676 5.98806,0.0138 c 6.2314,0.0144 10.26761,0.40053 16.03893,1.5348 1.63503,0.32134 4.82015,0.73961 7.07807,0.92949 2.2579,0.18987 4.13854,0.36197 4.1792,0.38248 0.0407,0.0204 1.1873,-0.90068 2.54811,-2.04701 z m -76.98846,-37.51849 -0.10434,-14.90278 -5.34338,-6.43311 c -2.93887,-3.53823 -5.44409,-6.3325 -5.56717,-6.20949 -0.12307,0.123 -2.08895,5.3775 -4.36864,11.67668 -3.85646,10.65618 -4.46524,12.16458 -4.78197,11.84862 -0.28089,-0.2802 2.26206,-15.78974 4.25042,-25.92346 3.60484,-18.37218 7.90469,-32.73299 11.87051,-39.64553 0.54952,-0.95784 1.63115,-2.50916 2.40362,-3.4474 0.77247,-0.93822 1.40449,-1.84817 1.40449,-2.02208 0,-0.183 -2.40349,-0.87924 -5.70396,-1.65234 -5.45463,-1.27769 -5.77952,-1.39159 -7.43198,-2.6053 -1.69189,-1.24268 -1.76053,-1.26544 -3.28518,-1.08951 -0.85644,0.0988 -3.69121,0.19197 -6.29948,0.20698 -3.59136,0.0207 -4.74181,0.11103 -4.74024,0.37227 0.001,0.18973 0.31954,5.12628 0.70758,10.9701 0.38802,5.84382 0.7056,10.71827 0.70574,10.83211 1.2e-4,0.11384 -0.18862,0.20698 -0.41943,0.20698 -0.54482,0 -2.98324,-4.87972 -4.07207,-8.14895 -1.97097,-5.91792 -1.79326,-10.59488 0.50893,-13.39332 l 0.80782,-0.98197 -3.5795,-0.47599 c -3.66441,-0.48726 -9.51863,-1.74949 -11.51973,-2.48382 -0.61584,-0.22597 -2.20266,-0.4773 -3.52625,-0.55849 -6.81615,-0.41814 -11.94473,-4.37327 -15.72466,-12.12678 -1.44358,-2.96113 -1.46817,-2.92442 -1.6275,2.43026 -0.14368,4.82902 0.22956,13.48455 0.78545,18.2145 2.72489,23.18541 10.75968,42.91503 24.10779,59.19714 5.82019,7.09952 14.93801,15.28167 22.04526,19.78297 9.31048,5.89667 18.25758,11.99618 18.30384,12.47823 0.21085,2.19755 0.28131,-3.65457 0.19404,-16.11652 z m 377.32367,-9.84563 c 7.9329,-5.87043 14.93162,-11.18407 15.55267,-11.80803 l 1.12918,-1.13448 -0.78623,-3.70754 c -3.56155,-16.79493 -10.68449,-33.7162 -18.60479,-44.19758 -2.38101,-3.15094 -7.55868,-8.25688 -10.12125,-9.98102 l -1.7728,-1.19277 0.0741,10.80829 0.0741,10.80829 6.19535,2.85378 c 3.40744,1.56956 6.29614,2.9553 6.41933,3.07944 0.31767,0.32012 2.40596,12.72192 2.1794,12.94278 -0.10289,0.10033 -2.8367,1.0693 -6.075,2.15325 l -5.88785,1.97082 -2.77755,5.10233 -2.77752,5.10229 0.15999,8.14133 c 0.088,4.47773 0.24255,11.08764 0.34343,14.6887 l 0.18341,6.54737 1.0343,-0.75185 c 0.56886,-0.41351 7.52487,-5.55495 15.45777,-11.4254 z m -248.28518,2.5142 c 0.54821,-2.52558 0.40833,-6.24934 -0.2971,-7.90884 l -0.49539,-1.1654 -5.65778,4.17573 -5.65779,4.17573 -3.16214,-0.6077 c -8.58457,-1.64979 -15.11494,-4.91656 -20.7353,-10.37281 -7.18347,-6.97367 -11.4785,-16.68415 -13.1867,-29.81327 -0.4608,-3.54187 -0.45851,-15.15656 0.003,-18.76646 1.43365,-11.1964 3.83778,-19.85555 7.37104,-26.54878 1.62361,-3.07568 3.26002,-5.15045 4.85418,-6.15454 0.60248,-0.37947 1.10052,-0.75203 1.10676,-0.82793 0.0118,-0.14362 -10.26958,-4.11797 -10.39093,-4.01672 -0.038,0.0317 0.33357,2.8073 0.82564,6.16805 0.88692,6.05734 0.89015,6.12023 0.37321,7.23767 -1.24443,2.69003 -4.81633,5.18418 -10.04819,7.01639 -2.08712,0.73092 -7.16564,2.07764 -7.85345,2.08258 -0.19288,0 -1.20814,-1.11332 -2.25613,-2.47711 -1.20335,-1.56602 -1.97609,-2.3541 -2.09724,-2.13883 -0.4186,0.74368 -2.4958,8.26602 -3.18051,11.51788 -1.44386,6.85716 -1.72117,9.78119 -1.72741,18.21451 -0.007,8.42448 0.268,11.24779 1.70232,17.52456 2.527,11.05861 7.8675,22.03163 15.01675,30.85474 l 1.66972,2.06067 2.12342,0.17828 c 1.16788,0.0981 2.44193,0.19884 2.83123,0.22401 0.38929,0.0251 3.89529,-0.11889 7.79112,-0.32011 4.63727,-0.23949 10.50345,-0.31497 16.98736,-0.21857 10.51296,0.15625 15.32711,0.55435 20.44026,1.69017 1.52382,0.33851 2.8681,0.53727 2.98726,0.4417 0.11917,-0.0956 0.41709,-1.0971 0.66205,-2.2256 z m 143.08924,-0.5432 c 15.51123,-2.67341 16.4135,-2.79832 19.11787,-2.64662 l 2.83831,0.15924 2.03945,-2.99516 c 7.0572,-10.36419 10.94492,-22.04733 11.31766,-34.01112 0.33309,-10.69061 -1.66751,-19.60355 -6.72807,-29.97436 l -1.64968,-3.38072 -6.46049,0 c -3.55325,0 -8.63318,0.0812 -11.28871,0.17935 l -4.82826,0.17856 0.62321,2.2749 c 0.89447,3.26504 2.03733,9.66154 2.41402,13.511 0.40361,4.1247 0.16036,13.32987 -0.45218,17.1106 -2.32078,14.32483 -9.06295,27.6078 -19.24626,37.91777 -1.40845,1.42598 -3.19785,3.09056 -3.97644,3.69909 -1.09902,0.85895 -1.25732,1.07016 -0.70781,0.94445 0.3893,-0.089 8.03362,-1.4246 16.98738,-2.96783 z m 133.39384,-29.93951 c 2.74867,-4.38407 5.06481,-8.34969 5.14692,-8.81252 1.48116,-8.34685 1.99311,-11.4 2.70935,-16.15819 2.50189,-16.62043 3.05616,-28.31037 1.5698,-33.10782 -0.32531,-1.05006 -0.37191,-1.53943 -0.15334,-1.61043 0.1727,-0.0562 0.23816,-0.22164 0.14546,-0.36785 -0.10389,-0.1638 -0.29466,-0.16788 -0.49721,-0.0107 -0.35563,0.27606 -6.07885,1.30928 -6.23301,1.12524 -0.0515,-0.0614 -0.86384,-1.07339 -1.80522,-2.24878 l -1.71162,-2.13706 -0.87847,4.45732 c -0.48317,2.4515 -0.93496,4.51233 -1.00398,4.57964 -0.069,0.0673 -1.40025,-0.0864 -2.95822,-0.34132 l -2.83267,-0.46368 -6.22366,2.95393 -6.22366,2.95393 -0.87142,-0.60487 -0.87146,-0.60485 -0.745,1.67452 c -0.40977,0.92099 -0.82393,1.67397 -0.92036,1.6733 -0.0964,0 -3.79832,-0.61913 -8.22638,-1.37437 -4.42808,-0.75527 -8.08098,-1.34401 -8.11756,-1.30836 -0.0366,0.0357 1.46511,1.86498 3.33708,4.06518 8.0681,9.48264 17.60501,22.62496 22.61574,31.16552 4.85227,8.27049 8.36671,16.64521 8.95849,21.34762 0.0983,0.78079 0.29428,1.28081 0.4795,1.22313 0.17231,-0.0536 2.56221,-3.68452 5.3109,-8.06861 z m -115.53773,-45.90527 12.3352,-2.43849 16.82645,1.37321 16.82644,1.37321 11.32492,-1.92767 c 6.33264,-1.07791 11.3983,-1.81792 11.49142,-1.67872 0.0916,0.13691 1.433,-0.86182 2.98097,-2.21946 l 2.81444,-2.46842 4.76045,0.83814 4.76043,0.83812 8.82129,-3.20499 c 8.00035,-2.90673 9.25279,-3.2817 13.4578,-4.02911 2.55007,-0.45322 4.6639,-0.86013 4.69742,-0.90421 0.0335,-0.044 0.42308,-2.09823 0.86569,-4.56477 0.44263,-2.46655 0.8769,-4.48392 0.96505,-4.48303 0.0881,0 1.62541,1.15116 3.41616,2.55613 1.79074,1.405 4.34214,3.24938 5.66976,4.09868 l 2.41384,1.54414 6.70962,-16.93255 6.70961,-16.93257 0.57537,-21.59589 0.57538,-21.59589 -1.82531,-51.1938 -1.8253,-51.1938 -6.38527,-38.41115 c -5.67443,-34.13495 -6.49212,-38.69742 -7.34477,-40.98264 -5.39329,-14.45436 -19.4252,-37.22416 -37.29965,-60.526723 -2.62637,-3.42393 -7.01282,-8.343361 -16.23384,-18.206415 L 553.66582,57.467167 543.06988,52.200439 c -13.82313,-6.87082 -19.45699,-8.845753 -29.58328,-10.370304 -4.92874,-0.742039 -15.21952,-1.012669 -20.33037,-0.534645 -6.45808,0.604029 -15.99749,2.555664 -17.07302,3.492915 -0.33563,0.292484 -0.64288,0.32795 -1.16496,0.134473 -0.38997,-0.144531 -4.19809,-3.060677 -8.46248,-6.480324 -5.68108,-4.555712 -8.05612,-6.638527 -8.88593,-7.792615 -2.48966,-3.462651 -7.14228,-7.474614 -11.80029,-10.175485 -15.61129,-9.051895 -41.38863,-10.316426 -73.05963,-3.584009 -13.26606,2.820015 -22.15128,5.455374 -37.43714,11.103867 l -8.76478,3.238806 -18.8397,10.023497 c -10.36181,5.512924 -26.01324,13.833642 -34.78091,18.490483 l -15.94124,8.466986 -12.72495,13.309144 c -6.99874,7.320028 -12.72496,13.372448 -12.72496,13.449812 0,0.07734 1.56072,-0.831211 3.46825,-2.01907 1.90755,-1.187859 5.08812,-3.168387 7.06796,-4.40118 1.97982,-1.232782 3.66976,-2.130906 3.75541,-1.995813 0.15992,0.252224 -5.47954,5.101799 -15.70724,13.507183 -3.1922,2.62344 -6.12253,5.05093 -6.51182,5.3944 -0.69096,0.60965 -7.20128,9.71399 -17.47398,24.43646 l -5.10297,7.3134 -14.90775,27.52343 -14.90774,27.52343 -12.44483,34.83047 -12.44484,34.83049 -0.7327,36.308 c -0.44455,22.02923 -0.88241,37.93598 -1.11339,40.44765 -0.86356,9.39046 -1.13714,16.66062 -1.13714,30.21952 0,14.47614 0.22703,19.12029 1.30858,26.7698 1.83825,13.00132 5.21387,20.76587 10.02553,23.06059 1.34044,0.63927 1.81223,0.72079 3.64813,0.63041 1.15973,-0.057 2.17899,-0.1724 2.26503,-0.25627 0.086,-0.0839 -0.35517,-1.13749 -0.98045,-2.34139 -0.6253,-1.2039 -1.32193,-3.05822 -1.54809,-4.12073 -0.45314,-2.12895 -0.58006,-7.58761 -0.16652,-7.16161 0.3777,0.38907 4.31594,13.35997 4.14043,13.63679 -0.26086,0.41142 2.41937,2.47375 4.50349,3.46527 4.0601,1.9316 8.7375,2.46158 14.81172,1.6783 3.44077,-0.44368 11.02469,-2.17611 11.48332,-2.62316 0.13152,-0.12819 -1.42664,-16.32135 -3.46258,-35.98477 -2.03595,-19.66343 -3.70172,-36.00997 -3.70172,-36.32562 0,-0.31567 0.10702,-0.57396 0.23781,-0.57396 0.1308,0 0.63934,2.32856 1.13011,5.17458 9.00844,52.24135 12.46927,72.15615 12.5538,72.23853 0.0565,0.0551 2.39389,-0.1443 5.19406,-0.44321 2.80018,-0.29892 10.16216,-1.08369 16.35997,-1.74396 6.19781,-0.66028 11.33962,-1.26958 11.42626,-1.35403 0.21886,-0.21333 0.38605,-7.59755 0.64159,-28.33564 l 0.21934,-17.80054 3.16122,-21.52624 c 2.91331,-19.83805 3.64416,-24.14459 3.69997,-21.80221 0.0765,3.21139 2.53809,31.17275 4.00879,45.53627 2.42186,23.65291 4.97231,40.07773 6.59907,42.49783 0.35957,0.5349 0.94985,0.68032 4.88991,1.20458 2.46454,0.32793 4.55972,0.59527 4.65596,0.59411 0.0962,0 0.12773,-1.3993 0.0699,-3.1069 -0.0578,-1.70762 -0.23622,-8.75539 -0.39661,-15.66172 -0.16038,-6.90634 -0.42287,-15.41333 -0.58331,-18.90445 l -0.29171,-6.34747 2.62274,-16.06636 c 1.44251,-8.83649 2.54629,-16.14086 2.45283,-16.23197 -0.0934,-0.0911 -2.25303,0.57636 -4.79907,1.48321 -2.54603,0.90687 -6.09431,2.16693 -7.88506,2.80013 -2.30345,0.81449 -3.48958,1.39473 -4.05466,1.9835 -0.83244,0.86734 -1.25119,0.88219 -0.91669,0.0325 0.10713,-0.27216 0.15473,-0.52744 0.10579,-0.5673 -0.0489,-0.0399 0.2433,-0.2882 0.64953,-0.55195 0.40622,-0.26373 1.55286,-1.08296 2.5481,-1.82051 6.12132,-4.53643 17.06125,-9.24494 25.45028,-10.95376 3.39278,-0.69108 10.73641,-1.02459 13.36284,-0.60685 l 1.61322,0.25658 0.15655,-1.40484 c 0.0861,-0.77268 0.40515,-3.64911 0.70899,-6.39208 0.37242,-3.36187 2.77523,-16.84946 7.37278,-41.38518 3.7512,-20.01884 6.87034,-36.44664 6.93144,-36.50621 0.0611,-0.0596 0.62238,0.17181 1.2473,0.51416 1.04605,0.57308 1.14831,0.73404 1.28909,2.0287 0.084,0.77343 0.98149,18.54442 1.99429,39.4911 1.60909,33.27986 1.93202,41.96719 2.55965,68.85635 l 0.71825,30.77148 2.24144,12.51877 c 1.23277,6.88533 2.2803,12.55051 2.32777,12.58929 0.0475,0.0388 3.92799,1.39975 8.6233,3.02434 l 8.53691,2.95382 7.1764,-3.93141 c 3.94703,-2.16225 7.20954,-3.9523 7.25002,-3.97782 0.0404,-0.0257 1.22051,-18.08844 2.62223,-40.13977 l 2.54864,-40.09334 9.07426,-34.80875 c 10.50505,-40.29702 10.19996,-39.15053 10.37263,-38.98221 0.0728,0.071 0.73813,10.41533 1.4785,22.98754 l 1.34616,22.85851 -0.80106,30.08153 c -0.60414,22.68683 -1.51913,82.28872 -1.26732,82.55217 0.0975,0.10205 40.79047,2.0012 40.88588,1.90819 0.0622,-0.0607 2.52229,-18.77863 5.46673,-41.59542 l 5.35355,-41.48505 11.04757,-46.08822 c 6.07615,-25.34852 12.11033,-50.43486 13.40923,-55.74742 l 2.36167,-9.65921 2.515,0.0631 c 1.38327,0.0347 3.68027,0.13845 5.10448,0.23058 l 2.58944,0.16755 0.16583,4.73699 c 0.0911,2.60537 0.37544,25.84928 0.63164,51.65317 0.2562,25.80387 0.48148,46.93314 0.50065,46.95395 0.0192,0.0207 9.59019,0.19199 21.26901,0.3805 14.76641,0.23833 21.35655,0.43695 21.63587,0.65216 0.56078,0.43201 7.41938,8.78444 7.30494,8.89599 -0.0513,0.05 -7.7205,-1.08073 -17.04263,-2.51283 l -16.94929,-2.60382 -5.82659,2.35861 c -3.20461,1.29723 -5.91381,2.44147 -6.02046,2.54269 -0.10658,0.1013 0.9448,13.31378 2.33658,29.36123 l 2.53047,29.17715 4.35233,9.87365 c 2.3938,5.43048 4.70383,10.92925 5.13342,12.21944 0.96669,2.90334 0.89616,2.7908 1.64257,2.62 0.34081,-0.078 6.17052,-1.23911 12.95488,-2.58028 z M 283.41639,168.87683 c 0.23309,-0.41742 0.702,-1.62827 1.04207,-2.69078 1.31998,-4.12453 4.72577,-12.09367 7.37532,-17.25739 5.96822,-11.63145 12.24404,-19.02679 18.7534,-22.09877 2.07382,-0.9787 4.5368,-1.61468 4.89628,-1.26428 0.0861,0.084 -1.55664,2.48962 -3.65067,5.34582 -8.36542,11.41017 -27.38339,37.64 -27.67176,38.16519 -0.16882,0.30753 -0.50081,0.55914 -0.7377,0.55914 -0.38389,0 -0.38465,-0.0826 -0.007,-0.75893 z m 2.34531,250.74948 c 1.27182,-0.16956 2.46699,-0.40146 2.65595,-0.51527 0.26721,-0.16098 0.13895,-4.39847 -0.57729,-19.0728 -1.05333,-21.58091 -1.07582,-20.24489 0.67969,-40.39207 0.67451,-7.74117 1.1473,-14.16078 1.05061,-14.26582 -0.7402,-0.80414 -9.20175,-1.0098 -14.38822,-0.3497 -4.92285,0.62656 -7.07437,1.18251 -7.32011,1.8915 -0.37809,1.0908 -0.46899,15.19374 -0.14161,21.96926 0.7552,15.63003 2.29904,33.65235 3.30973,38.63683 0.23083,1.13841 0.41641,2.42206 0.41239,2.85258 -0.007,0.77379 0.62505,1.99399 1.31043,2.52898 0.19446,0.15178 0.66538,1.62747 1.04649,3.2793 0.38112,1.65183 0.80622,3.11374 0.94469,3.24872 0.80339,0.78311 5.90337,0.87038 11.01725,0.18849 z m 23.04547,-37.12367 c -1.26574,-14.39253 -2.39285,-26.44846 -2.50468,-26.791 -0.13392,-0.41015 -2.42699,-2.07236 -6.7152,-4.86774 l -6.51183,-4.24492 -0.22058,1.28001 c -0.12131,0.70402 -0.15171,2.08727 -0.0676,3.07389 0.0841,0.98663 -0.0379,8.99686 -0.27121,17.80054 -0.23332,8.80367 -0.42587,17.35688 -0.42791,19.00711 l -0.003,3.0004 0.63703,-0.45674 c 3.46225,-2.48253 8.15428,-2.37073 10.85164,0.25853 1.10866,1.08071 2.27606,2.81227 2.04668,3.03584 -0.053,0.0517 -2.99856,-0.34356 -6.54578,-0.87822 -3.54721,-0.53465 -6.64005,-0.90079 -6.87301,-0.81366 -0.56534,0.21148 -1.51923,2.3054 -1.52178,3.34056 -0.004,1.82643 0.20144,1.94901 8.04776,4.79 l 7.35036,2.6614 2.41739,3.06944 c 1.32957,1.68821 2.46155,3.03195 2.51551,2.9861 0.054,-0.0459 -0.93744,-11.85905 -2.20317,-26.25154 z m -2.75463,-60.15901 c 0.27305,-30.70582 0.21512,-53.92241 -0.13238,-53.08004 -2.35054,5.69752 -7.6467,34.82936 -11.13625,61.25537 -1.22563,9.28181 -1.21904,9.00605 -0.22205,9.24776 0.42823,0.10377 1.57054,0.55626 2.53851,1.00547 1.7055,0.79148 7.40542,2.64279 8.31515,2.70071 0.40458,0.0257 0.46744,-2.05915 0.63702,-21.12927 z"
       id="path3347"
       inkscape:connector-curvature="0" />
  </g>
</svg>
